<?xml version="1.0" encoding="utf-8"?>
<!-- Generator: Adobe Illustrator 19.2.0, SVG Export Plug-In . SVG Version: 6.00 Build 0)  -->
<svg version="1.1" id="Layer_1" xmlns="http://www.w3.org/2000/svg" xmlns:xlink="http://www.w3.org/1999/xlink" x="0px" y="0px"
	 viewBox="0 0 1464.3 620.9" style="enable-background:new 0 0 1464.3 620.9;" xml:space="preserve">
<style type="text/css">
	.st0{fill:none;}
	.st1{font-family:'Helvetica';}
	.st2{font-size:48px;}
	.st3{font-size:21px;}
	.st4{font-family:'Helvetica-Bold';}
	.st5{font-size:24px;}
	.st6{font-family:'Helvetica-Oblique';}
	.st7{fill:none;stroke:#000000;stroke-width:10;stroke-miterlimit:10;}
	.st8{fill:none;stroke:#006837;stroke-width:13;stroke-miterlimit:10;}
	.st9{fill:none;stroke:#C1272D;stroke-width:13;stroke-miterlimit:10;}
	.st10{fill:none;stroke:#603813;stroke-width:13;stroke-miterlimit:10;}
	.st11{fill:none;stroke:#000000;stroke-width:3;stroke-miterlimit:10;}
</style>
<g id="Text_1_">
	<rect x="297.2" y="364.4" class="st0" width="121.7" height="48.2"/>
	<text transform="matrix(1 0 0 1 297.2435 398.8975)" class="st1 st2">1995</text>
	<rect x="286.2" y="467.5" class="st0" width="214.9" height="57.4"/>
	<text transform="matrix(1 0 0 1 286.1533 482.6466)" class="st1 st3">This year is variable </text>
	<text transform="matrix(1 0 0 1 286.1533 507.8466)" class="st1 st3">for each country</text>
	<rect x="69.4" y="63.8" class="st0" width="214.9" height="84.1"/>
	<text transform="matrix(1 0 0 1 69.4063 78.9261)" class="st1 st3">This is useful for initial</text>
	<text transform="matrix(1 0 0 1 276.0063 78.9261)" class="st1 st3">-</text>
	<text transform="matrix(1 0 0 1 69.4063 104.1261)" class="st1 st3">izing the carbon pools</text>
	<rect x="28.4" y="353.8" class="st0" width="214.9" height="171.2"/>
	<text transform="matrix(1 0 0 1 28.3831 368.8594)" class="st1 st3">In this period there is </text>
	<text transform="matrix(1 0 0 1 28.3831 394.0594)" class="st1 st3">no human influence </text>
	<text transform="matrix(1 0 0 1 28.3831 419.2594)" class="st1 st3">assumed. Natural dis</text>
	<text transform="matrix(1 0 0 1 225.6831 419.2594)" class="st1 st3">-</text>
	<text transform="matrix(1 0 0 1 28.3831 444.4594)" class="st1 st3">turbances are used </text>
	<text transform="matrix(1 0 0 1 28.3831 469.6594)" class="st1 st3">such as fire</text>
	<rect x="641.5" y="364.4" class="st0" width="121.7" height="48.2"/>
	<text transform="matrix(1 0 0 1 641.4571 398.8975)" class="st1 st2">2015</text>
	<rect x="616.1" y="478.1" class="st0" width="200.1" height="56.1"/>
	<text transform="matrix(1 0 0 1 616.1404 493.2482)" class="st1 st3">This year is the same </text>
	<text transform="matrix(1 0 0 1 616.1404 518.4482)" class="st1 st3">for all countries</text>
	<rect x="834.4" y="364.4" class="st0" width="121.7" height="48.2"/>
	<text transform="matrix(1 0 0 1 834.3907 398.8975)" class="st1 st2">2020</text>
	<rect x="1021.4" y="364.4" class="st0" width="121.7" height="48.2"/>
	<text transform="matrix(1 0 0 1 1021.4423 398.8975)" class="st1 st2">2025</text>
	<rect x="1214.3" y="366.3" class="st0" width="121.7" height="48.2"/>
	<text transform="matrix(1 0 0 1 1214.2872 400.7796)" class="st1 st2">2030</text>
	<rect x="603.2" y="223.1" class="st0" width="179.7" height="28.4"/>
	<text transform="matrix(1 0 0 1 603.1647 240.3766)" class="st4 st5">sim_base_year</text>
	<rect x="828" y="223.1" class="st0" width="140.4" height="28"/>
	<text transform="matrix(1 0 0 1 828.0319 240.3765)" class="st4 st5">sim_year_1</text>
	<rect x="1020" y="224.5" class="st0" width="140.4" height="28"/>
	<text transform="matrix(1 0 0 1 1020.0001 241.7829)" class="st4 st5">sim_year_2</text>
	<rect x="1214.3" y="224.5" class="st0" width="140.4" height="28"/>
	<text transform="matrix(1 0 0 1 1214.2874 241.7829)" class="st4 st5">sim_year_3</text>
	<rect x="939.9" y="424.6" class="st0" width="140.4" height="28"/>
	<text transform="matrix(1 0 0 1 939.881 439.6982)" class="st6 st3">sim_step</text>
	<rect x="745.2" y="426.5" class="st0" width="140.4" height="28"/>
	<text transform="matrix(1 0 0 1 745.1509 441.5803)" class="st6 st3">sim_step</text>
	<rect x="1117.5" y="425.6" class="st0" width="140.4" height="28"/>
	<text transform="matrix(1 0 0 1 1117.5211 440.6982)" class="st6 st3">sim_step</text>
	<rect x="453" y="260.6" class="st0" width="194.7" height="28"/>
	<text transform="matrix(1 0 0 1 453.0196 275.7303)" class="st1 st3">historical_period</text>
	<rect x="721.8" y="268.8" class="st0" width="194.7" height="28"/>
	<text transform="matrix(1 0 0 1 721.8323 283.87)" class="st1 st3">sim_period_1</text>
	<rect x="911.2" y="268.8" class="st0" width="194.7" height="28"/>
	<text transform="matrix(1 0 0 1 911.2344 283.87)" class="st1 st3">sim_period_2</text>
	<rect x="1099.2" y="268.8" class="st0" width="194.7" height="28"/>
	<text transform="matrix(1 0 0 1 1099.2025 283.87)" class="st1 st3">sim_period_3</text>
	<rect x="69.4" y="262.6" class="st0" width="233.2" height="28"/>
	<text transform="matrix(1 0 0 1 69.4064 277.7303)" class="st1 st3">initialization_period</text>
	<rect x="229.3" y="224.5" class="st0" width="257.7" height="28"/>
	<text transform="matrix(1 0 0 1 229.2502 241.7829)" class="st4 st5">inventory_start_year</text>
</g>
<g id="Timeline">
	<g>
		<g>
			<line class="st7" x1="17" y1="313.2" x2="1386.1" y2="308.3"/>
			<g>
				<path d="M1428.3,308.1c-19.9,7.4-44.5,20.1-59.7,33.5l11.9-33.3l-12.2-33.2C1383.7,288.3,1408.4,300.8,1428.3,308.1z"/>
			</g>
		</g>
	</g>
	<line class="st8" x1="346.6" y1="264.8" x2="346.6" y2="351.5"/>
	<line class="st9" x1="694.8" y1="264.8" x2="694.8" y2="351.5"/>
	<line class="st10" x1="887.7" y1="264.8" x2="887.7" y2="351.5"/>
	<line class="st10" x1="1074.8" y1="264.8" x2="1074.8" y2="351.5"/>
	<line class="st10" x1="1263.6" y1="270.7" x2="1263.6" y2="357.4"/>
</g>
<g id="Arrows">
	<g>
		<g>
			<line class="st11" x1="720.7" y1="292.8" x2="862.6" y2="292.8"/>
			<g>
				<path d="M711.7,292.8c4.3,1.6,9.5,4.3,12.8,7.1l-2.6-7.1l2.6-7.1C721.2,288.5,715.9,291.2,711.7,292.8z"/>
			</g>
			<g>
				<path d="M871.6,292.8c-4.3,1.6-9.5,4.3-12.8,7.1l2.6-7.1l-2.6-7.1C862.1,288.5,867.4,291.2,871.6,292.8z"/>
			</g>
		</g>
	</g>
	<g>
		<g>
			<line class="st11" x1="904.3" y1="292.8" x2="1046.2" y2="292.8"/>
			<g>
				<path d="M895.2,292.8c4.3,1.6,9.5,4.3,12.8,7.1l-2.6-7.1l2.6-7.1C904.8,288.5,899.5,291.2,895.2,292.8z"/>
			</g>
			<g>
				<path d="M1055.2,292.8c-4.3,1.6-9.5,4.3-12.8,7.1l2.6-7.1l-2.6-7.1C1045.7,288.5,1051,291.2,1055.2,292.8z"/>
			</g>
		</g>
	</g>
	<g>
		<g>
			<line class="st11" x1="1100.3" y1="292.8" x2="1242.1" y2="292.8"/>
			<g>
				<path d="M1091.2,292.8c4.3,1.6,9.5,4.3,12.8,7.1l-2.6-7.1l2.6-7.1C1100.7,288.5,1095.5,291.2,1091.2,292.8z"/>
			</g>
			<g>
				<path d="M1251.2,292.8c-4.3,1.6-9.5,4.3-12.8,7.1l2.6-7.1l-2.6-7.1C1241.6,288.5,1246.9,291.2,1251.2,292.8z"/>
			</g>
		</g>
	</g>
	<g>
		<g>
			<line class="st11" x1="37.4" y1="286.7" x2="327.5" y2="286.7"/>
			<g>
				<path d="M28.4,286.7c4.3,1.6,9.5,4.3,12.8,7.1l-2.6-7.1l2.6-7.1C37.9,282.4,32.6,285.1,28.4,286.7z"/>
			</g>
			<g>
				<path d="M336.6,286.7c-4.3,1.6-9.5,4.3-12.8,7.1l2.6-7.1l-2.6-7.1C327,282.4,332.3,285.1,336.6,286.7z"/>
			</g>
		</g>
	</g>
	<g>
		<g>
			<line class="st11" x1="171.2" y1="118" x2="171.2" y2="235.9"/>
			<g>
				<polygon points="159,225.9 161.2,223.9 171.2,234.7 181.3,223.9 183.5,225.9 171.2,239.1 				"/>
			</g>
		</g>
	</g>
	<g>
		<g>
			<line class="st11" x1="346.6" y1="454.3" x2="346.6" y2="415.8"/>
			<g>
				<polygon points="358.9,425.8 356.7,427.8 346.6,417 336.5,427.8 334.3,425.8 346.6,412.6 				"/>
			</g>
		</g>
	</g>
	<g>
		<g>
			<line class="st11" x1="689.6" y1="465.1" x2="689.6" y2="416.9"/>
			<g>
				<polygon points="701.9,426.8 699.7,428.9 689.6,418 679.6,428.9 677.4,426.8 689.6,413.6 				"/>
			</g>
		</g>
	</g>
	<g>
		<g>
			<line class="st11" x1="917.3" y1="450" x2="1053.5" y2="450"/>
			<g>
				<rect x="916.6" y="445.1" width="1.5" height="9.8"/>
			</g>
			<g>
				<rect x="1052.7" y="445.1" width="1.5" height="9.8"/>
			</g>
		</g>
	</g>
	<g>
		<g>
			<line class="st11" x1="722.6" y1="451.9" x2="858.7" y2="451.9"/>
			<g>
				<rect x="721.8" y="447" width="1.5" height="9.8"/>
			</g>
			<g>
				<rect x="858" y="447" width="1.5" height="9.8"/>
			</g>
		</g>
	</g>
	<g>
		<g>
			<line class="st11" x1="1095" y1="451" x2="1231.1" y2="451"/>
			<g>
				<rect x="1094.2" y="446.1" width="1.5" height="9.8"/>
			</g>
			<g>
				<rect x="1230.3" y="446.1" width="1.5" height="9.8"/>
			</g>
		</g>
	</g>
	<g>
		<g>
			<line class="st11" x1="377.5" y1="284.7" x2="667.6" y2="284.7"/>
			<g>
				<path d="M368.4,284.7c4.3,1.6,9.5,4.3,12.8,7.1l-2.6-7.1l2.6-7.1C378,280.4,372.7,283.1,368.4,284.7z"/>
			</g>
			<g>
				<path d="M676.6,284.7c-4.3,1.6-9.5,4.3-12.8,7.1l2.6-7.1l-2.6-7.1C667.1,280.4,672.4,283.1,676.6,284.7z"/>
			</g>
		</g>
	</g>
</g>
</svg>
